<svg height="512pt" viewBox="0 0 512.00101 512" width="512pt" xmlns="http://www.w3.org/2000/svg" xmlns:xlink="http://www.w3.org/1999/xlink"><linearGradient id="a" gradientUnits="userSpaceOnUse" x1="256.0002963371" x2="256.0002963371" y1=".0002893327" y2="511.9752112278"><stop offset="0" stop-color="#2af598"/><stop offset="1" stop-color="#009efd"/></linearGradient><path d="m488.578125 136.550781c15.113281-15.125 23.433594-35.230469 23.421875-56.613281-.007812-21.378906-8.347656-41.476562-23.480469-56.582031-31.203125-31.160157-81.957031-31.136719-113.132812.054687l-112.574219 112.621094-135.347656-135.351562-126.140625 126.140624 135.375 135.375-84.117188 84.152344c-10.476562 10.464844-18.476562 23.421875-23.136719 37.476563l-.296874.902343-29.148438 127.25 127.367188-29.09375.898437-.296874c14.0625-4.652344 27.035156-12.640626 37.523437-23.113282l84.074219-84.113281 135.308594 135.308594 126.140625-126.140625-135.335938-135.332032zm-91.386719 34.90625-56.691406-56.632812 21.6875-21.695313 56.691406 56.632813zm63.097656-119.828125c7.578126 7.5625 11.753907 17.625 11.757813 28.332032.003906 10.707031-4.160156 20.769531-11.726563 28.34375l-13.195312 13.199218-56.691406-56.632812 13.210937-13.214844c15.609375-15.617188 41.019531-15.628906 56.644531-.027344zm-402.460937 75.191406 69.636719-69.636718 39.242187 39.242187-34.390625 34.390625 28.25 28.25 34.390625-34.386718 39.609375 39.605468-69.625 69.652344zm7.234375 280.054688 40.132812 40.089844-52.039062 11.886718zm76.683594 20.128906-56.6875-56.632812 227.195312-227.289063 56.691406 56.632813zm245.136718-110.398437-34.386718 34.390625 28.25 28.25 34.390625-34.390625 39.671875 39.671875-69.636719 69.636718-107.0625-107.0625 69.621094-69.648437zm0 0" fill="url(#a)"/></svg>