<svg width="102" height="102" viewBox="0 0 102 102" fill="none" xmlns="http://www.w3.org/2000/svg">
<rect width="102" height="102" rx="6.625" fill="url(#paint0_linear_11_2)"/>
<path d="M51.9627 24V78.9513H41.9276L18.0206 44.3653H17.6181V78.9513H6V24H16.196L39.9153 58.5592H40.3982V24H51.9627Z" fill="white"/>
<path d="M58.417 78.9513V24H76.1528C80.0523 24 83.3079 24.7066 85.9195 26.1197C88.549 27.515 90.5256 29.4558 91.8493 31.9422C93.1909 34.4107 93.8617 37.2459 93.8617 40.4478C93.8617 43.6497 93.1909 46.476 91.8493 48.9266C90.5256 51.3773 88.558 53.2913 85.9464 54.6686C83.3347 56.046 80.0971 56.7347 76.2333 56.7347H61.127V52.1464H76.0991C78.9612 52.1464 81.3403 51.6724 83.2364 50.7244C85.1504 49.7763 86.5724 48.4258 87.5026 46.6728C88.4506 44.9198 88.9247 42.8448 88.9247 40.4478C88.9247 38.0509 88.4506 35.958 87.5026 34.1692C86.5545 32.3625 85.1235 30.9673 83.2095 29.9835C81.3134 28.9996 78.9165 28.5077 76.0186 28.5077H63.4346V78.9513H58.417ZM82.6461 54.1588L96.1692 78.9513H90.3736L76.9846 54.1588H82.6461Z" fill="white"/>
<defs>
<linearGradient id="paint0_linear_11_2" x1="0" y1="0" x2="102" y2="102" gradientUnits="userSpaceOnUse">
<stop stop-color="#C11E38"/>
<stop offset="1" stop-color="#220B34"/>
</linearGradient>
</defs>
</svg>
