<svg height="512pt" viewBox="0 0 512 512" width="512pt" xmlns="http://www.w3.org/2000/svg" xmlns:xlink="http://www.w3.org/1999/xlink"><linearGradient id="a" gradientUnits="userSpaceOnUse" x1="256" x2="256" y1="-.001184" y2="511.795416"><stop offset="0" stop-color="#2af598"/><stop offset="1" stop-color="#009efd"/></linearGradient><path d="m215.742188 150.980469c-22.453126.867187-43.222657 10.476562-58.472657 27.046875-23.355469 25.378906-24.027343 52.164062-24.621093 75.796875-.550782 21.871093-1.070313 42.527343-18.003907 66.582031l-22.179687 31.511719h38.535156c3.039062 0 6.015625-.042969 8.9375-.121094h272.0625v-40h-151.300781c7.476562-6.214844 14.019531-12.722656 19.980469-19.203125 16.96875-18.4375 24.148437-42.523438 21.828124-65.753906l114.816407-160.699219c6.625-7.691406 10.039062-17.453125 9.644531-27.648437-.410156-10.6875-4.960938-20.574219-12.8125-27.835938-7.847656-7.265625-18.046875-11.035156-28.746094-10.625-10.578125.40625-20.371094 4.871094-27.617187 12.574219l-135.457031 138.402343c-2.1875-.089843-4.382813-.113281-6.59375-.027343zm35.503906 114.53125c-18.125 19.695312-41.417969 38.1875-86.511719 44.292969 7.03125-20.457032 7.496094-39 7.898437-54.972657.539063-21.316406.890626-35.394531 14.070313-49.71875 7.988281-8.679687 18.851563-13.710937 30.582031-14.164062 11.71875-.449219 22.929688 3.71875 31.550782 11.742187 17.882812 16.648438 18.964843 44.828125 2.410156 62.820313zm135.296875-225.09375.257812-.144531-.671875.722656-101.339844 141.839844c-2.617187-3.3125-5.519531-6.464844-8.699218-9.421876-3.5-3.261718-7.242188-6.167968-11.15625-8.746093zm125.457031 91.378906v240c0 33.082031-26.914062 60-60 60h-176v40h104v40h-248v-40h104v-40h-176c-33.085938 0-60-26.917969-60-60v-240c0-33.085937 26.914062-60 60-60h183.890625l-39.148437 40h-144.742188c-11.027344 0-20 8.96875-20 20v240c0 11.027344 8.972656 20 20 20h392c11.027344 0 20-8.972656 20-20v-240c0-11.03125-8.972656-20-20-20h-18.132812l15.113281-21.15625c4.597656-5.621094 8.359375-11.761719 11.238281-18.265625 29.207031 4.019531 51.78125 29.125 51.78125 59.421875zm0 0" fill="url(#a)"/></svg>