<svg width="98" height="91" viewBox="0 0 98 91" fill="none" xmlns="http://www.w3.org/2000/svg">
<path d="M50.7387 18.0487V73H40.7037L16.7966 38.414H16.3942V73H4.77604V18.0487H14.9721L38.6913 52.6079H39.1743V18.0487H50.7387ZM57.1931 73V18.0487H74.9288C78.8284 18.0487 82.084 18.7553 84.6956 20.1684C87.3251 21.5636 89.3017 23.5045 90.6254 25.9909C91.967 28.4594 92.6378 31.2946 92.6378 34.4965C92.6378 37.6984 91.967 40.5247 90.6254 42.9753C89.3017 45.426 87.334 47.34 84.7224 48.7173C82.1108 50.0947 78.8731 50.7834 75.0093 50.7834H59.9031V46.1951H74.8752C77.7372 46.1951 80.1163 45.7211 82.0124 44.7731C83.9264 43.825 85.3485 42.4745 86.2786 40.7215C87.2267 38.9685 87.7007 36.8935 87.7007 34.4965C87.7007 32.0996 87.2267 30.0067 86.2786 28.2179C85.3306 26.4112 83.8996 25.016 81.9856 24.0322C80.0895 23.0483 77.6925 22.5564 74.7947 22.5564H62.2106V73H57.1931ZM81.4221 48.2075L94.9453 73H89.1496L75.7606 48.2075H81.4221Z" fill="white"/>
</svg>
