<svg width="91" height="55" viewBox="0 0 91 55" fill="none" xmlns="http://www.w3.org/2000/svg">
<path d="M46.7387 0.0487061V55H36.7036L12.7966 20.414H12.3941V55H0.776001V0.0487061H10.972L34.6913 34.6079H35.1742V0.0487061H46.7387Z" fill="white"/>
<path d="M53.193 55V0.0487061H70.9288C74.8283 0.0487061 78.0839 0.755275 80.6955 2.16841C83.325 3.56366 85.3016 5.50448 86.6253 7.99089C87.9669 10.4594 88.6377 13.2946 88.6377 16.4965C88.6377 19.6984 87.9669 22.5247 86.6253 24.9753C85.3016 27.426 83.334 29.34 80.7224 30.7173C78.1107 32.0947 74.8731 32.7834 71.0093 32.7834H55.903V28.1951H70.8751C73.7372 28.1951 76.1163 27.7211 78.0124 26.7731C79.9264 25.825 81.3484 24.4745 82.2786 22.7215C83.2266 20.9685 83.7007 18.8935 83.7007 16.4965C83.7007 14.0996 83.2266 12.0067 82.2786 10.2179C81.3305 8.41125 79.8995 7.016 77.9855 6.03217C76.0894 5.04834 73.6925 4.55643 70.7946 4.55643H58.2106V55H53.193ZM77.4221 30.2075L90.9452 55H85.1496L71.7606 30.2075H77.4221Z" fill="white"/>
</svg>
