<svg width="148" height="116" viewBox="0 0 148 116" fill="none" xmlns="http://www.w3.org/2000/svg">
<rect y="87" width="148" height="19" fill="#FF1B6B"/>
<path d="M73.9091 23.1818V93H58.0909L32.8636 56.3182H32.4545V93H13.5V23.1818H29.5909L54.4091 59.7273H54.9545V23.1818H73.9091ZM86.8295 93V23.1818H110.42C115.875 23.1818 120.352 24.1136 123.852 25.9773C127.352 27.8182 129.943 30.3523 131.625 33.5795C133.307 36.8068 134.148 40.4773 134.148 44.5909C134.148 48.7045 133.307 52.3523 131.625 55.5341C129.943 58.7159 127.364 61.2159 123.886 63.0341C120.409 64.8295 115.966 65.7273 110.557 65.7273H91.4659V58.0909H110.284C114.011 58.0909 117.011 57.5455 119.284 56.4545C121.58 55.3636 123.239 53.8182 124.261 51.8182C125.307 49.7955 125.83 47.3864 125.83 44.5909C125.83 41.7955 125.307 39.3523 124.261 37.2614C123.216 35.1705 121.545 33.5568 119.25 32.4205C116.955 31.2614 113.92 30.6818 110.148 30.6818H95.2841V93H86.8295ZM119.693 61.6364L136.875 93H127.057L110.148 61.6364H119.693Z" fill="white"/>
<path d="M73.9091 23.1818H78.9091V18.1818H73.9091V23.1818ZM73.9091 93V98H78.9091V93H73.9091ZM58.0909 93L53.9711 95.8333L55.4613 98H58.0909V93ZM32.8636 56.3182L36.9834 53.4849L35.4933 51.3182H32.8636V56.3182ZM32.4545 56.3182V51.3182H27.4545V56.3182H32.4545ZM32.4545 93V98H37.4545V93H32.4545ZM13.5 93H8.5V98H13.5V93ZM13.5 23.1818V18.1818H8.5V23.1818H13.5ZM29.5909 23.1818L33.7273 20.3728L32.2394 18.1818H29.5909V23.1818ZM54.4091 59.7273L50.2727 62.5363L51.7606 64.7273H54.4091V59.7273ZM54.9545 59.7273V64.7273H59.9545V59.7273H54.9545ZM54.9545 23.1818V18.1818H49.9545V23.1818H54.9545ZM68.9091 23.1818V93H78.9091V23.1818H68.9091ZM73.9091 88H58.0909V98H73.9091V88ZM62.2107 90.1667L36.9834 53.4849L28.7439 59.1515L53.9711 95.8333L62.2107 90.1667ZM32.8636 51.3182H32.4545V61.3182H32.8636V51.3182ZM27.4545 56.3182V93H37.4545V56.3182H27.4545ZM32.4545 88H13.5V98H32.4545V88ZM18.5 93V23.1818H8.5V93H18.5ZM13.5 28.1818H29.5909V18.1818H13.5V28.1818ZM25.4546 25.9908L50.2727 62.5363L58.5454 56.9183L33.7273 20.3728L25.4546 25.9908ZM54.4091 64.7273H54.9545V54.7273H54.4091V64.7273ZM59.9545 59.7273V23.1818H49.9545V59.7273H59.9545ZM54.9545 28.1818H73.9091V18.1818H54.9545V28.1818ZM86.8295 93H81.8295V98H86.8295V93ZM86.8295 23.1818V18.1818H81.8295V23.1818H86.8295ZM123.852 25.9773L121.502 30.3906L121.514 30.3966L121.525 30.4025L123.852 25.9773ZM131.625 33.5795L127.191 35.8902L127.191 35.8902L131.625 33.5795ZM131.625 55.5341L127.205 53.1976L127.205 53.1976L131.625 55.5341ZM123.886 63.0341L126.18 67.4768L126.192 67.4709L126.203 67.4649L123.886 63.0341ZM91.4659 65.7273H86.4659V70.7273H91.4659V65.7273ZM91.4659 58.0909V53.0909H86.4659V58.0909H91.4659ZM119.284 56.4545L117.138 51.9386L117.129 51.9427L117.12 51.9469L119.284 56.4545ZM124.261 51.8182L119.82 49.5224L119.815 49.5321L119.81 49.5417L124.261 51.8182ZM119.25 32.4205L116.996 36.8837L117.014 36.8926L117.032 36.9014L119.25 32.4205ZM95.2841 30.6818V25.6818H90.2841V30.6818H95.2841ZM95.2841 93V98H100.284V93H95.2841ZM119.693 61.6364L124.078 59.2341L122.655 56.6364H119.693V61.6364ZM136.875 93V98H145.315L141.26 90.5977L136.875 93ZM127.057 93L122.656 95.3728L124.072 98H127.057V93ZM110.148 61.6364V56.6364H101.772L105.747 64.0091L110.148 61.6364ZM91.8295 93V23.1818H81.8295V93H91.8295ZM86.8295 28.1818H110.42V18.1818H86.8295V28.1818ZM110.42 28.1818C115.348 28.1818 118.946 29.0295 121.502 30.3906L126.202 21.5639C121.759 19.1978 116.402 18.1818 110.42 18.1818V28.1818ZM121.525 30.4025C124.206 31.8126 126.021 33.6446 127.191 35.8902L136.059 31.2689C133.866 27.0599 130.499 23.8238 126.18 21.5521L121.525 30.4025ZM127.191 35.8902C128.455 38.3156 129.148 41.1758 129.148 44.5909H139.148C139.148 39.7787 138.159 35.298 136.059 31.2688L127.191 35.8902ZM129.148 44.5909C129.148 48.0076 128.454 50.8329 127.205 53.1976L136.045 57.8706C138.159 53.8716 139.148 49.4015 139.148 44.5909H129.148ZM127.205 53.1976C126.039 55.4033 124.235 57.2097 121.57 58.6032L126.203 67.4649C130.493 65.2221 133.848 62.0285 136.045 57.8706L127.205 53.1976ZM121.592 58.5914C119.043 59.9079 115.456 60.7273 110.557 60.7273V70.7273C116.475 70.7273 121.775 69.7512 126.18 67.4768L121.592 58.5914ZM110.557 60.7273H91.4659V70.7273H110.557V60.7273ZM96.4659 65.7273V58.0909H86.4659V65.7273H96.4659ZM91.4659 63.0909H110.284V53.0909H91.4659V63.0909ZM110.284 63.0909C114.431 63.0909 118.255 62.4945 121.448 60.9622L117.12 51.9469C115.767 52.5964 113.591 53.0909 110.284 53.0909V63.0909ZM121.43 60.9705C124.583 59.4723 127.124 57.2016 128.713 54.0946L119.81 49.5417C119.353 50.4347 118.576 51.2549 117.138 51.9386L121.43 60.9705ZM128.703 54.1139C130.19 51.2378 130.83 48.006 130.83 44.5909H120.83C120.83 46.7667 120.424 48.3531 119.82 49.5224L128.703 54.1139ZM130.83 44.5909C130.83 41.1698 130.188 37.9337 128.734 35.0253L119.789 39.4974C120.426 40.7709 120.83 42.4211 120.83 44.5909H130.83ZM128.734 35.0253C127.154 31.8666 124.641 29.51 121.468 27.9395L117.032 36.9014C118.45 37.6037 119.278 38.4744 119.789 39.4974L128.734 35.0253ZM121.504 27.9572C118.26 26.3192 114.365 25.6818 110.148 25.6818V35.6818C113.475 35.6818 115.649 36.2035 116.996 36.8837L121.504 27.9572ZM110.148 25.6818H95.2841V35.6818H110.148V25.6818ZM90.2841 30.6818V93H100.284V30.6818H90.2841ZM95.2841 88H86.8295V98H95.2841V88ZM115.308 64.0386L132.49 95.4023L141.26 90.5977L124.078 59.2341L115.308 64.0386ZM136.875 88H127.057V98H136.875V88ZM131.458 90.6272L114.549 59.2636L105.747 64.0091L122.656 95.3728L131.458 90.6272ZM110.148 66.6364H119.693V56.6364H110.148V66.6364Z" fill="black"/>
</svg>
