<svg height="512pt" viewBox="0 0 512 511" width="512pt" xmlns="http://www.w3.org/2000/svg" xmlns:xlink="http://www.w3.org/1999/xlink"><linearGradient id="a" gradientUnits="userSpaceOnUse" x1="256.0002840212" x2="256.0002840212" y1=".5002000212" y2="512.0347920212"><stop offset="0" stop-color="#2af598"/><stop offset="1" stop-color="#009efd"/></linearGradient><path d="m373.953125 291.785156c-7.707031-7.675781-17.230469-13.539062-27.550781-16.957031l-.914063-.304687-94.457031-21.480469-.09375-.113281c-.027344.023437-.058594.050781-.085938.074218l-.511718-.117187.101562.453125c-7.566406 6.167968-26.652344 18.390625-38.019531 17.222656-2.226563-.230469-3.519531-.945312-4.941406-2.734375-5.054688-6.375-4.386719-9.308594-4.167969-10.273437.570312-2.515626 3.769531-9.605469 21.074219-21.0625 14.339843-9.496094 33.449219-18.800782 51.925781-27.800782 40.640625-19.792968 75.738281-36.886718 84.75-63.769531 3.511719-10.472656 2.625-21.398437-2.5625-31.59375-7.277344-14.304687-19.609375-24.085937-35.667969-28.289063-24.355469-6.375-58.230469.125-100.6875 19.324219-31.679687 14.324219-56.160156 30.222657-56.386719 30.375l22.105469 33.292969c.214844-.144531 22.992188-14.785156 51.542969-27.613281 44.0625-19.800781 64.90625-18.957031 73.410156-16.691407 4.976563 1.324219 7.984375 3.636719 10.066406 7.722657.179688.359375.265626.597656.304688.722656-.242188.78125-2.28125 5.828125-16.578125 15.179687-12.765625 8.351563-29.78125 16.636719-47.796875 25.410157-44.648438 21.75-86.820312 42.289062-94.46875 75.933593-2.34375 10.300782-2.191406 26.292969 11.824219 43.964844 8.113281 10.230469 19.246093 16.335938 32.195312 17.660156 1.761719.179688 3.53125.265626 5.300781.265626 17.054688 0 34.089844-7.925782 46.183594-15.234376l11.851563 52.941407.3125.941406c3.433593 10.371094 9.328125 19.941406 17.050781 27.664063l138.027344 134.242187 84.910156-85.105469zm52.714844 163.195313-109.425781-106.417969c-.742188-.75-1.441407-1.535156-2.101563-2.359375l28.242187-28.222656c.839844.675781 1.648438 1.398437 2.410157 2.160156l109.328125 106.324219zm-97.066407 17.089843 41.09375 39.964844h-270.785156c-33.054687 0-59.945312-26.890625-59.945312-59.945312v-34.96875h-39.964844v-39.964844h39.964844v-99.90625h-39.964844v-39.964844h39.964844v-99.910156h-39.964844v-39.964844h39.964844v-36.964844c0-33.054687 26.890625-59.945312 59.945312-59.945312h310.714844c33.054688 0 59.945312 26.890625 59.945312 59.945312v269.558594l-39.960937-38.867187v-230.691407c0-11.019531-8.964844-19.980468-19.984375-19.980468h-310.714844c-11.019531 0-19.984375 8.960937-19.984375 19.980468v36.964844h8.992188v.050782c.332031-.015626.664062-.050782 1-.050782 11.035156 0 19.980469 8.949219 19.980469 19.984375 0 11.035157-8.945313 19.980469-19.980469 19.980469-.335938 0-.667969-.035156-1-.050781v.050781h-8.992188v99.910156h8.992188v.050782c.332031-.015626.664062-.050782 1-.050782 11.035156 0 19.980469 8.945313 19.980469 19.980469s-8.945313 19.984375-19.980469 19.984375c-.335938 0-.667969-.035156-1-.054688v.054688h-8.992188v99.90625h8.992188v.050781c.332031-.015625.664062-.050781 1-.050781 11.035156 0 19.980469 8.945312 19.980469 19.984375 0 11.035156-8.945313 19.980469-19.980469 19.980469-.335938 0-.667969-.035156-1-.050782v.050782h-8.992188v34.96875c0 11.015625 8.964844 19.980468 19.984375 19.980468zm0 0" fill="url(#a)"/></svg>